<svg xmlns="http://www.w3.org/2000/svg" xmlns:xlink="http://www.w3.org/1999/xlink" width="500" zoomAndPan="magnify" viewBox="0 0 375 374.999991" height="500" preserveAspectRatio="xMidYMid meet" version="1.2"><g id="64788f912d"><path style=" stroke:none;fill-rule:nonzero;fill:#000000;fill-opacity:1;" d="M 331.730469 20.253906 L 331.730469 85.503906 L 317.996094 86.363281 C 307.773438 87.921875 298.191406 91.488281 289.917969 97.78125 C 281.019531 105.054688 274.332031 113.492188 269.917969 124.140625 C 266.277344 134.957031 265.992188 145.261719 266.039062 156.574219 C 266.035156 158.414062 266.027344 160.257812 266.023438 162.101562 C 266.007812 166.039062 266.007812 169.976562 266.011719 173.914062 C 266.019531 180.148438 266.007812 186.378906 265.988281 192.609375 C 265.960938 202.464844 265.953125 212.316406 265.949219 222.171875 C 265.945312 239.832031 265.921875 257.488281 265.875 275.148438 C 265.863281 281.339844 265.859375 287.53125 265.859375 293.722656 C 265.859375 297.570312 265.855469 301.421875 265.847656 305.273438 C 265.84375 307.054688 265.84375 308.835938 265.847656 310.617188 C 265.855469 313.050781 265.847656 315.488281 265.839844 317.925781 L 265.851562 320.046875 C 265.800781 327.707031 264.164062 334.15625 260.316406 340.800781 C 257.179688 345.363281 253.425781 348.621094 248.582031 351.285156 C 241.792969 354.492188 236.222656 355.21875 228.796875 355.175781 L 226.332031 355.171875 C 223.742188 355.167969 221.152344 355.15625 218.5625 355.144531 C 216.804688 355.140625 215.046875 355.136719 213.285156 355.132812 C 208.980469 355.125 204.679688 355.109375 200.375 355.09375 C 200.308594 323.828125 200.261719 292.566406 200.230469 261.304688 L 200.230469 259.308594 C 200.214844 248.675781 200.199219 238.042969 200.175781 227.410156 C 200.148438 216.484375 200.136719 205.558594 200.132812 194.632812 C 200.128906 187.898438 200.117188 181.167969 200.09375 174.4375 C 200.082031 169.257812 200.078125 164.082031 200.082031 158.902344 C 200.082031 156.789062 200.078125 154.675781 200.066406 152.566406 C 199.960938 128.949219 203.660156 107.183594 215.109375 86.257812 C 226.664062 66.097656 242.5 49.324219 262.515625 37.429688 C 284.808594 24.890625 305.988281 20.253906 331.730469 20.253906 M 43.257812 142.171875 C 45.882812 142.0625 48.488281 142.007812 51.113281 141.996094 L 53.53125 141.980469 C 55.230469 141.972656 56.925781 141.96875 58.625 141.964844 C 61.195312 141.957031 63.769531 141.929688 66.339844 141.902344 C 67.988281 141.898438 69.640625 141.890625 71.292969 141.886719 L 73.597656 141.855469 C 79.863281 141.878906 85.542969 143.085938 91.140625 145.972656 C 97.402344 150.40625 102.15625 155.175781 105.933594 161.917969 C 107.519531 165.886719 107.898438 169.460938 107.882812 173.6875 L 107.894531 175.636719 C 107.90625 177.027344 107.910156 178.417969 107.910156 179.804688 C 107.914062 182.015625 107.929688 184.226562 107.945312 186.4375 C 107.992188 192.722656 108.019531 199.007812 108.039062 205.292969 C 108.054688 209.144531 108.082031 212.996094 108.113281 216.851562 C 108.125 218.304688 108.128906 219.761719 108.128906 221.21875 C 108.128906 235.90625 110.429688 248.6875 117.792969 261.671875 C 123.832031 271.253906 131.835938 277.855469 141.777344 283.1875 C 149.441406 286.835938 157.484375 288.621094 165.824219 289.886719 L 168.863281 290.351562 L 171.183594 290.699219 C 171.203125 298.96875 171.214844 307.238281 171.226562 315.507812 C 171.230469 319.347656 171.238281 323.183594 171.246094 327.023438 C 171.257812 330.726562 171.261719 334.429688 171.265625 338.128906 C 171.265625 339.546875 171.269531 340.960938 171.273438 342.375 C 171.277344 344.351562 171.28125 346.328125 171.28125 348.304688 L 171.285156 351.71875 L 171.183594 354.234375 L 170.324219 355.09375 C 150.402344 356.441406 130.832031 350.722656 113.066406 342.050781 C 107.195312 339.089844 101.757812 335.863281 96.488281 331.910156 L 95.09375 330.890625 C 76.0625 316.90625 62.273438 299.433594 52.515625 277.976562 C 49.753906 271.65625 47.5625 265.148438 45.941406 258.449219 L 45.441406 256.429688 C 42.203125 241.984375 42.152344 227.371094 42.203125 212.648438 L 42.203125 206.601562 C 42.203125 202.410156 42.210938 198.222656 42.222656 194.035156 C 42.234375 188.65625 42.242188 183.273438 42.238281 177.894531 C 42.238281 173.75 42.242188 169.605469 42.25 165.457031 L 42.253906 159.5 C 42.257812 156.746094 42.265625 153.992188 42.273438 151.234375 L 42.273438 148.738281 L 42.285156 146.484375 L 42.289062 144.511719 L 42.398438 143.027344 Z M 43.257812 142.171875 "/><path style=" stroke:none;fill-rule:nonzero;fill:#000000;fill-opacity:1;" d="M 317.597656 161.710938 C 321.28125 163.273438 324.632812 165.042969 327.441406 167.925781 C 330.308594 171.824219 331.96875 175.5625 332.589844 180.375 C 332.808594 184.988281 332.03125 188.683594 330.015625 192.824219 C 328.027344 196.546875 325.777344 198.996094 322.234375 201.304688 C 318.648438 203.449219 315.503906 204.121094 311.339844 204.199219 C 305.875 204.136719 301.992188 202.484375 297.230469 199.960938 C 293.664062 197.027344 291.574219 193.703125 289.84375 189.4375 C 288.660156 185.539062 288.609375 181.839844 289.152344 177.816406 C 290.042969 174.039062 291.578125 170.988281 293.957031 167.925781 C 296.769531 165.222656 299.742188 163.304688 303.238281 161.59375 C 308.066406 160.648438 312.832031 160.285156 317.597656 161.710938 "/></g></svg>